<svg xmlns="http://www.w3.org/2000/svg" viewBox="0 0 100 100">
  <!-- Brain outline -->
  <path d="M50 15
    C35 15 22 25 20 38
    C16 38 12 42 12 47
    C12 52 15 56 19 57
    C18 60 18 63 20 66
    C22 70 26 72 30 72
    C31 75 34 78 38 79
    C40 85 45 88 50 88
    C55 88 60 85 62 79
    C66 78 69 75 70 72
    C74 72 78 70 80 66
    C82 63 82 60 81 57
    C85 56 88 52 88 47
    C88 42 84 38 80 38
    C78 25 65 15 50 15Z"
    fill="#4F46E5" opacity="0.15" stroke="#4F46E5" stroke-width="2" stroke-linejoin="round"/>

  <!-- Brain fold lines -->
  <path d="M50 15 C50 30 50 45 50 60" stroke="#4F46E5" stroke-width="1.5" fill="none" opacity="0.4"/>
  <path d="M30 35 C36 40 40 48 38 56" stroke="#4F46E5" stroke-width="1.5" fill="none" opacity="0.4"/>
  <path d="M70 35 C64 40 60 48 62 56" stroke="#4F46E5" stroke-width="1.5" fill="none" opacity="0.4"/>
  <path d="M22 50 C30 50 38 52 44 50" stroke="#4F46E5" stroke-width="1.5" fill="none" opacity="0.4"/>
  <path d="M78 50 C70 50 62 52 56 50" stroke="#4F46E5" stroke-width="1.5" fill="none" opacity="0.4"/>

  <!-- Smile (emotion indicator) -->
  <path d="M38 62 Q50 72 62 62" stroke="#4F46E5" stroke-width="2.5" fill="none" stroke-linecap="round"/>

  <!-- Eyes -->
  <circle cx="40" cy="54" r="2.5" fill="#4F46E5"/>
  <circle cx="60" cy="54" r="2.5" fill="#4F46E5"/>
</svg>
